<svg width="74" height="74" viewBox="0 0 74 74" fill="none" xmlns="http://www.w3.org/2000/svg">
<path d="M11.1685 20.5246C11.0688 20.5251 10.97 20.5059 10.8778 20.468C10.7855 20.4301 10.7017 20.3743 10.6312 20.3038C10.5607 20.2333 10.5049 20.1495 10.467 20.0573C10.4292 19.9651 10.4099 19.8663 10.4105 19.7666C10.4071 17.4729 9.49442 15.2742 7.87256 13.6523C6.25069 12.0304 4.05195 11.1178 1.75829 11.1144C1.558 11.1144 1.36586 11.0351 1.22383 10.8939C1.0818 10.7527 1.00144 10.561 1.00031 10.3607C1.00031 10.1597 1.08016 9.96686 1.22231 9.82471C1.36446 9.68256 1.55726 9.6027 1.75829 9.6027C4.0527 9.59928 6.25209 8.68602 7.87408 7.06322C9.49607 5.44042 10.4082 3.24058 10.4105 0.946168C10.4099 0.846469 10.4292 0.747646 10.467 0.655426C10.5049 0.563205 10.5607 0.479418 10.6312 0.408918C10.7017 0.338419 10.7855 0.282608 10.8778 0.244718C10.97 0.206828 11.0688 0.187612 11.1685 0.188184C11.2682 0.187612 11.367 0.206828 11.4592 0.244718C11.5515 0.282608 11.6352 0.338419 11.7057 0.408918C11.7762 0.479418 11.8321 0.563205 11.8699 0.655426C11.9078 0.747646 11.9271 0.846469 11.9265 0.946168C11.9299 3.23983 12.8426 5.43857 14.4644 7.06044C16.0863 8.6823 18.285 9.59497 20.5787 9.59839C20.6784 9.59782 20.7772 9.61703 20.8694 9.65492C20.9617 9.69281 21.0455 9.74862 21.1159 9.81912C21.1864 9.88962 21.2423 9.97341 21.2801 10.0656C21.318 10.1579 21.3373 10.2567 21.3367 10.3564C21.3373 10.4561 21.318 10.5549 21.2801 10.6471C21.2423 10.7393 21.1864 10.8231 21.1159 10.8936C21.0455 10.9641 20.9617 11.0199 20.8694 11.0578C20.7772 11.0957 20.6784 11.1149 20.5787 11.1144C18.2847 11.1166 16.0853 12.0289 14.4632 13.6511C12.8411 15.2732 11.9288 17.4726 11.9265 19.7666C11.9253 19.9673 11.8451 20.1594 11.7032 20.3013C11.5613 20.4432 11.3692 20.5234 11.1685 20.5246Z" fill="#50E6FF"/>
<path d="M65.6782 73.0237C65.5171 73.0237 65.3627 72.9597 65.2488 72.8458C65.1349 72.7319 65.071 72.5775 65.071 72.4164C65.0687 70.5816 64.3388 68.8225 63.0413 67.5251C61.7439 66.2277 59.9849 65.4978 58.15 65.4955C57.9897 65.4955 57.8359 65.4321 57.7222 65.3192C57.6084 65.2062 57.5439 65.0529 57.5428 64.8926C57.5428 64.7315 57.6068 64.577 57.7206 64.4632C57.8345 64.3493 57.989 64.2853 58.15 64.2853C59.9852 64.2842 61.7449 63.5546 63.0426 62.257C64.3403 60.9593 65.0698 59.1996 65.071 57.3644C65.071 57.2033 65.1349 57.0489 65.2488 56.935C65.3627 56.8211 65.5171 56.7571 65.6782 56.7571C65.8393 56.7571 65.9937 56.8211 66.1076 56.935C66.2215 57.0489 66.2854 57.2033 66.2854 57.3644C66.2866 59.1996 67.0161 60.9593 68.3138 62.257C69.6115 63.5546 71.3712 64.2842 73.2064 64.2853C73.3674 64.2853 73.5219 64.3493 73.6358 64.4632C73.7496 64.577 73.8136 64.7315 73.8136 64.8926C73.8136 65.0536 73.7496 65.2081 73.6358 65.3219C73.5219 65.4358 73.3674 65.4998 73.2064 65.4998C71.3715 65.5021 69.6125 66.232 68.3151 67.5294C67.0176 68.8268 66.2877 70.5859 66.2854 72.4207C66.2843 72.581 66.2198 72.7344 66.1061 72.8473C65.9923 72.9603 65.8385 73.0237 65.6782 73.0237Z" fill="#50E6FF"/>
<path d="M62.9146 30.2756C64.1293 35.3599 63.809 40.6903 61.9942 45.5927C60.1795 50.495 56.9518 54.7491 52.7192 57.817C48.4867 60.8849 43.4395 62.6289 38.2159 62.8283C32.9923 63.0277 27.8268 61.6736 23.3727 58.9373C18.9186 56.201 15.376 52.2054 13.1927 47.4557C11.0095 42.706 10.2838 37.4155 11.1073 32.2534C11.9308 27.0912 14.2666 22.2891 17.8193 18.4545C21.3719 14.6198 25.9819 11.9247 31.0663 10.7101C37.8842 9.08134 45.0699 10.2277 51.0426 13.8969C57.0153 17.5661 61.2858 23.4577 62.9146 30.2756Z" fill="url(#paint0_radial_7_1244)"/>
<path d="M23.0346 54.3303C23.9753 54.3549 24.9115 54.1911 25.7879 53.8484C26.6644 53.5058 27.4634 52.9913 28.138 52.3351C28.8125 51.679 29.349 50.8945 29.7158 50.0279C30.0826 49.1613 30.2723 48.2301 30.2738 47.289C30.2752 46.348 30.0883 45.4162 29.7242 44.5484C29.36 43.6807 28.826 42.8946 28.1534 42.2364C27.4808 41.5782 26.6834 41.0613 25.808 40.716C24.9326 40.3706 23.997 40.204 23.0562 40.2257C23.077 40.0254 23.0871 39.8242 23.0863 39.6228C23.0692 37.7407 22.3067 35.9422 20.9657 34.6215C19.6248 33.3007 17.8149 32.5655 15.9328 32.577H10.6442C10.1268 36.4847 10.4738 40.4583 11.6608 44.2172C12.8478 47.976 14.8457 51.4283 17.5134 54.3303H23.0346Z" fill="#F2F2F2"/>
<path d="M63.2415 31.5039C63.2415 31.4393 63.2415 31.3747 63.2114 31.3144C62.3595 26.7058 60.2659 22.4173 57.1561 18.911C56.7527 18.7476 56.3364 18.6179 55.9115 18.5234C54.7798 18.2005 53.5896 18.1386 52.4306 18.3424C51.2715 18.5462 50.1738 19.0104 49.2202 19.6999C48.2665 20.3894 47.4817 21.2864 46.925 22.3232C46.3683 23.36 46.054 24.5096 46.006 25.6855C45.72 25.6524 45.4325 25.6338 45.1447 25.6295C43.3807 25.6294 41.6734 26.2526 40.3243 27.3891C38.9752 28.5256 38.0711 30.1024 37.7718 31.8408C37.4724 33.5792 37.797 35.3675 38.6883 36.8898C39.5795 38.4121 40.98 39.5705 42.6425 40.1604C43.3845 40.4512 44.1754 40.5974 44.9724 40.5911H53.7151C57.2255 37.9338 60.4216 34.8851 63.2415 31.5039Z" fill="#F2F2F2"/>
<path d="M72.4833 14.3505C69.7744 9.84134 63.4392 8.08419 54.5888 9.40205C51.5566 9.83179 48.5597 10.4824 45.6222 11.3487C47.9525 12.1532 50.1655 13.264 52.2029 14.652C53.2408 14.4237 54.2831 14.1524 55.2822 14.0016C56.854 13.7569 58.4418 13.6288 60.0326 13.6183C61.5877 13.3942 63.1741 13.5624 64.6477 14.1077C66.1212 14.653 67.4349 15.5582 68.4694 16.7407C70.1189 19.4884 68.7278 24.1871 64.6537 29.6609C58.9915 36.7085 52.0531 42.6271 44.201 47.1075C36.5248 51.8984 28.0162 55.2031 19.1186 56.8493C12.3829 57.8571 7.56797 56.8493 5.9185 54.1102C4.26902 51.3711 5.66009 46.6596 9.73426 41.2116C10.2381 40.5354 10.363 40.2038 10.9358 39.5233C10.6666 37.1885 10.7043 34.8284 11.0478 32.5033C9.2168 34.3387 7.53205 36.3143 6.00894 38.4122C0.672901 45.5484 -0.77416 51.9655 1.93047 56.4746C3.35921 58.3861 5.26475 59.8889 7.45652 60.8329C9.64829 61.7769 12.0495 62.1289 14.42 61.8537C16.2241 61.8442 18.025 61.7002 19.8077 61.423C29.3052 59.6896 38.3914 56.1831 46.5912 51.0869C54.9656 46.2944 62.3604 39.9648 68.3876 32.4301C73.7409 25.2767 75.1879 18.8639 72.4833 14.3505Z" fill="#50E6FF"/>
<defs>
<radialGradient id="paint0_radial_7_1244" cx="0" cy="0" r="1" gradientUnits="userSpaceOnUse" gradientTransform="translate(37.0044 36.4082) scale(26.5654 26.3346)">
<stop offset="0.183" stop-color="#5EA0EF"/>
<stop offset="1" stop-color="#0078D4"/>
</radialGradient>
</defs>
</svg>
